<svg xmlns="http://www.w3.org/2000/svg" data-name="Layer 7" viewBox="0 0 64 80" x="0px" y="0px"><title>29_gas stove</title><path d="M58.344,38.474a5.031,5.031,0,0,0-5.008-4.489H49.477V32.306a2.6,2.6,0,0,0-2.747-2.381V25.88a1,1,0,0,0-1-1H40.406a1,1,0,0,0,0,2H44.73v4.042a1,1,0,0,0,1,1H46.7c.472,0,.773.252.773.384v1.679H20.8a1,1,0,0,0,0,2H53.336a3.033,3.033,0,0,1,3.019,2.707l.5,4.571-18.034.067a6.9,6.9,0,0,0-.941-2.608,1,1,0,0,0-1.705,1.047,4.9,4.9,0,1,1-3.742-2.315L31.48,42.6a1,1,0,0,0,.667,1.247,1.016,1.016,0,0,0,.291.043,1,1,0,0,0,.957-.71l1.272-4.2A1,1,0,0,0,34,37.73a6.9,6.9,0,0,0-4,13.207,6.933,6.933,0,0,0,2.009.3,6.826,6.826,0,0,0,6.809-5.907l18.256-.068.643,5.883a1.387,1.387,0,0,1-1.378,1.537H7.661a1.387,1.387,0,0,1-1.378-1.537l.636-5.816,14.018-.07a1,1,0,0,0-.005-2h0l-13.789.069.507-4.635a3.033,3.033,0,0,1,3.019-2.708h4.859a1,1,0,0,0,1-1V32.306c0-.132.3-.384.773-.384H41.145a1,1,0,0,0,0-2H33V25.88a1,1,0,1,0-2,0v4.042H19.27V26.88h4.324a1,1,0,0,0,0-2H18.27a1,1,0,0,0-1,1v4.045a2.6,2.6,0,0,0-2.747,2.381v1.679H10.664a5.032,5.032,0,0,0-5.008,4.49L4.3,50.928a3.388,3.388,0,0,0,3.366,3.754H9.15v1.563a2.168,2.168,0,0,0,2.166,2.165h.923a2.169,2.169,0,0,0,1.837-1.026l1.659-2.7h32.53l1.659,2.7a2.169,2.169,0,0,0,1.837,1.026h.923a2.168,2.168,0,0,0,2.166-2.165V54.682h1.489a3.388,3.388,0,0,0,3.366-3.754ZM12.371,56.337a.154.154,0,0,1-.132.073h-.923a.166.166,0,0,1-.166-.165V54.682h2.237Zm40.479-.092a.166.166,0,0,1-.166.165h-.923a.154.154,0,0,1-.132-.073l-1.016-1.655H52.85Z"/><path d="M38.154,12.434a6.444,6.444,0,0,0-2.355.559C35.336,10.9,34.231,7.6,31.7,5.821a1.285,1.285,0,0,0-1.976.717,12.111,12.111,0,0,1-2.4,4.655,9.752,9.752,0,0,0-2.3,3.958,6.172,6.172,0,0,0,.531,5.111c.986,1.494,2.791,2.436,5.363,2.8a5.148,5.148,0,0,0,.726.051h.025a7.811,7.811,0,0,0,4.563-1.462,5.553,5.553,0,0,0,2.122-4.039c.2-2.528.617-3.3.739-3.479a1.076,1.076,0,0,0,.07-1.141A1.218,1.218,0,0,0,38.154,12.434Zm-1.8,5.023a3.549,3.549,0,0,1-1.333,2.6,5.9,5.9,0,0,1-3.372,1.06,2.814,2.814,0,0,1-.457-.032c-1.98-.28-3.317-.926-3.973-1.921a4.206,4.206,0,0,1-.27-3.488,7.82,7.82,0,0,1,1.857-3.143,13.462,13.462,0,0,0,2.513-4.414c2.013,2.044,2.618,5.523,2.762,6.633a1.12,1.12,0,0,0,2.049.468,1.382,1.382,0,0,1,.612-.457A17.608,17.608,0,0,0,36.354,17.457Z"/><text x="0" y="79" fill="#000000" font-size="5px" font-weight="bold" font-family="'Helvetica Neue', Helvetica, Arial-Unicode, Arial, Sans-serif">Created by Rabbit Jes</text><text x="0" y="84" fill="#000000" font-size="5px" font-weight="bold" font-family="'Helvetica Neue', Helvetica, Arial-Unicode, Arial, Sans-serif">from the Noun Project</text></svg>