<svg xmlns="http://www.w3.org/2000/svg" viewBox="0 0 32 40" x="0px" y="0px"><g data-name="Gas Stove"><path d="M28,11.821H25.912l-1.93-2.8A.5.5,0,0,0,23.57,8.8H20.216a.5.5,0,0,0-.5.5v1.509a.5.5,0,0,0,.5.5h1.271v.509H17.42V9.306a.5.5,0,0,0-.5-.5H15.08a.5.5,0,0,0-.5.5v2.515H10.513v-.509h1.271a.5.5,0,0,0,.5-.5V9.3a.5.5,0,0,0-.5-.5H8.43a.5.5,0,0,0-.412.216l-1.93,2.8H4a2.5,2.5,0,0,0-2.5,2.5v5.61a1.5,1.5,0,0,0,1.5,1.5h.5V22.7a.5.5,0,0,0,.5.5H6.8a.5.5,0,0,0,.5-.5V21.431H24.7V22.7a.5.5,0,0,0,.5.5H28a.5.5,0,0,0,.5-.5V21.431H29a1.5,1.5,0,0,0,1.5-1.5v-5.61A2.5,2.5,0,0,0,28,11.821Zm-6.013-1.509H20.716V9.8h2.592l1.39,2.018H22.487V10.812A.5.5,0,0,0,21.987,10.312ZM15.58,9.806h.84v2.015h-.84Zm-6.888,0h2.592v.509H10.013a.5.5,0,0,0-.5.5v1.009H7.3ZM6.3,22.2H4.5v-.766H6.3Zm21.2,0H25.7v-.766h1.8Zm2-2.266a.5.5,0,0,1-.5.5H3a.5.5,0,0,1-.5-.5v-5.61a1.5,1.5,0,0,1,1.5-1.5H15.056a.06.06,0,0,0,.048,0H16.9a.06.06,0,0,0,.048,0H28a1.5,1.5,0,0,1,1.5,1.5ZM16,13.712a2.914,2.914,0,1,0,2.914,2.914A2.917,2.917,0,0,0,16,13.712Zm0,4.828a1.91,1.91,0,0,1-.5-3.754v1.84a.5.5,0,1,0,1,0v-1.84A1.91,1.91,0,0,1,16,18.54Zm-3.856-1.914a.5.5,0,0,1-.5.5H5.949a.5.5,0,0,1,0-1h5.7A.5.5,0,0,1,12.144,16.626Zm14.407,0a.5.5,0,0,1-.5.5H20.356a.5.5,0,0,1,0-1h5.695A.5.5,0,0,1,26.551,16.626Z"/></g><text x="0" y="47" fill="#000000" font-size="5px" font-weight="bold" font-family="'Helvetica Neue', Helvetica, Arial-Unicode, Arial, Sans-serif">Created by The Icon Z</text><text x="0" y="52" fill="#000000" font-size="5px" font-weight="bold" font-family="'Helvetica Neue', Helvetica, Arial-Unicode, Arial, Sans-serif">from the Noun Project</text></svg>